<?xml version="1.0" encoding="UTF-8"?><svg id="Layer_1" xmlns="http://www.w3.org/2000/svg" width="1260.09" height="704.32" viewBox="0 0 1260.09 704.32"><defs><style>.cls-1{fill:#e5e5e5;}.cls-1,.cls-2,.cls-3,.cls-4,.cls-5,.cls-6,.cls-7,.cls-8,.cls-9,.cls-10,.cls-11,.cls-12,.cls-13,.cls-14{stroke-width:0px;}.cls-2{fill:#3187ad;}.cls-3{fill:#d3593d;}.cls-4{fill:#161616;}.cls-15{fill:#1e1e1e;font-family:MyanmarText-Bold, 'Myanmar Text';font-size:263.28px;font-weight:700;}.cls-5{fill:#595959;}.cls-6{fill:#c6c6c6;}.cls-7{fill:#d6d6d6;}.cls-8{fill:#fbfbfb;}.cls-9{fill:#8f8f8f;}.cls-10{fill:#1c1c1c;}.cls-11{fill:#212121;}.cls-12{fill:#f4ed73;}.cls-13{fill:#58937f;}.cls-14{fill:#bfd8c7;}</style></defs><path class="cls-14" d="m1228.71,260.5c-32.74,130.16-211.49,142.58-240.69,182.67-29.2,40.09-69.02,248.68-179.63,104.34-110.61-144.34-36.28-135.16-49.55-240.29-13.27-105.13-123.88-80.1-119.46-160.19s203-190.29,261.93-90.11c58.4,99.29,360.15,73.42,327.41,203.58Z"/><path class="cls-13" d="m467.12,516.46c-58.49-128.5,67.01-231.31,63.26-280.75-3.75-49.44-106.93-248.85,67.6-182.09,174.53,66.76,113.2,97.21,190.09,180.52,76.89,83.31,143.5,4.82,191.23,75.79,47.73,70.97-30.27,267.85-138.09,212.31-106.85-55.04-315.6,122.71-374.09-5.79Z"/><text class="cls-15" transform="translate(534.27 314.81)"><tspan x="0" y="0">Oops!</tspan></text><circle class="cls-12" cx="236.91" cy="223.38" r="193.42"/><path class="cls-2" d="m373.56,34s-76.62,122.41-14.49,144.33c9.25,3.26,19.48,3.41,28.89.6,65.05-19.44-14.41-144.92-14.41-144.92Z"/><path class="cls-11" d="m346.57,31.44c4.99-8.17,9.44-16.04,14.45-23.53,6.38-9.56,19.27-9.74,25.5-.09,20.49,31.72,37.28,65.16,45.26,102.42,1.22,5.71,1.31,11.67,2.51,17.39,1.62,7.69,3.44,15.39,5.84,22.86,33.05,102.69-19,217.05-118.24,259.57-82.42,35.31-175.27,17.48-238.12-46.54-36.21-36.88-57.18-81.53-59.88-133.23-4.67-89.48,31.87-158.67,109.88-202.47,68.21-38.29,138.53-36.15,207.61.73,1.66.88,3.28,1.82,5.18,2.88Zm-14.7,27.45c-59.37-39.42-153.07-40.18-220.28,21.57-64.68,59.43-77.13,160.68-28,234.58,50.54,76.03,147.9,103.9,229.95,65.41,87.61-41.09,116.44-132.08,102.61-198.29-16.52,15.05-35.81,19.62-57.41,15.28-.28,2.92-.48,5.28-.73,7.64-2.54,23.74-24.3,41.13-49.41,39.49-22.68-1.48-42.15-22.68-41.68-45.36.17-8.25,6.47-14.87,14.59-15.34,7.74-.45,14.68,5.49,15.75,13.52.17,1.26.25,2.53.43,3.78,1.16,7.89,7.1,13.15,14.93,13.23,7.83.08,14.17-5.11,15.01-13.01.66-6.24,2.09-11.83,8.05-15.53-13.88-12.14-22.49-26.75-22.51-44.88-.01-11.48.94-23.26,3.67-34.36,3.94-16.08,9.87-31.66,15.03-47.72Zm42.21-12.37c-11.32,18.28-18.94,36.81-24.75,56.13-3.67,12.18-6.5,24.55-5.78,37.38.66,11.77,6.53,20.43,17.09,25.51,10.37,4.99,20.73,4.2,30.25-2.28,10.57-7.2,14.33-17.69,13.33-30.15-1.81-22.43-9.18-43.27-18.43-63.52-3.46-7.57-7.52-14.87-11.7-23.07Z"/><path class="cls-11" d="m297.53,321.13c.02,11.87-12.22,18.92-23.18,13.05-13.03-6.99-26.74-10.51-41.55-9.85-12.29.54-23.59,4.22-34.37,9.97-8.45,4.51-17.59,1.77-21.57-6.12-3.65-7.22-1.51-15.82,5.76-19.84,35.72-19.73,71.62-19.76,107.46-.21,4.99,2.72,7.22,7.38,7.45,13Z"/><path class="cls-11" d="m160.68,244.75c-24.95.11-45.59-20.09-45.9-44.93-.11-8.62,5.91-15.31,14.34-15.93,7.7-.56,14.62,5.25,15.88,13.34.22,1.41.29,2.84.49,4.25,1.09,7.53,7.04,12.74,14.7,12.89,7.66.16,13.77-4.78,15.17-12.31.46-2.48.49-5.09,1.25-7.47,2.31-7.2,9.69-11.38,17.31-10.06,7.21,1.25,12.55,8.13,12.29,15.84-.84,24.7-20.91,44.26-45.52,44.37Z"/><path class="cls-1" d="m109.26,314.7l-3.29,15.33c-1.08,5.02-6.64,7.65-11.21,5.3l-12.8-6.6c-.93-.48-1.94-.77-2.98-.85l-20.69-1.59c-2.36-.18-4.67.72-6.29,2.44l-7.45,7.94c-2.81,3-2.81,7.66-.01,10.66l8.22,8.81c.53.57,1.14,1.05,1.82,1.44l145.13,83.35c1.21.7,2.6,1.06,4,1.04l66.77-.94c1.37-.02,2.71-.4,3.89-1.1l150.99-90.03c4.24-2.53,5.1-8.32,1.77-11.96l-11.54-12.63c-1.87-2.04-4.68-2.95-7.39-2.37l-33.2,7.06c-4.85,1.03-9.43-2.67-9.43-7.63v-8.63c0-6.26-7.01-9.97-12.19-6.45l-68.02,46.21c-.51.35-.97.75-1.39,1.2l-20.15,22.14c-.84.92-1.44,2.03-1.77,3.24l-2.14,8.01c-.09.33-.2.66-.33.97l-6,14.47c-.45,1.08-1.13,2.05-2.01,2.83l-9.7,8.68c-.15.13-.3.26-.46.38l-.82.63c-3.64,2.78-8.87,1.85-11.33-2.02l-16.36-25.76c-.17-.27-.36-.53-.56-.77l-35.97-43.75c-.56-.68-1.23-1.26-1.99-1.72l-53.46-32.34c-4.59-2.78-10.54-.2-11.67,5.04Z"/><polygon class="cls-3" points="17.56 343 12.13 582.5 193.51 690.63 275.95 690.63 461.04 586.19 453.39 342.23 268.03 440.9 247.08 446.66 224.88 450.66 49.56 358 17.56 343"/><polygon class="cls-3" points="19.56 343.37 14.13 582.88 195.51 691 277.95 691 463.04 586.57 455.39 342.61 270.03 441.28 249.08 447.04 226.88 451.03 51.56 358.37 19.56 343.37"/><path class="cls-11" d="m212.4,704.32h-2.64c-.24-.25-.44-.55-.72-.74-1.98-1.43-4.05-2.73-5.93-4.27-2.5-2.06-5.37-2.98-8.51-3.43-3.83-.54-7.66-1.22-11.11-3.15-20.67-11.59-41.34-23.18-62.01-34.8-28.04-15.76-56.06-31.53-84.09-47.29-8.03-4.52-16.11-8.95-24.09-13.57-6.44-3.72-10.83-9.12-12.47-16.52-.31-1.38-.56-2.77-.83-4.15,0-.48,0-.96,0-1.44.08-.21.23-.43.23-.64,0-6.44-.03-12.88-.04-19.32.02-.16.05-.32.05-.48,0-11.59-.01-23.18-.02-34.77,0-.32.02-.64.02-.96,0-55.48,0-110.97,0-166.45,0-.36-.03-.72-.04-1.08.01-.36.03-.72.04-1.08.25-5.74,2.17-10.78,6.4-14.76,6.77-6.37,15.55-7.76,23.91-3.71,1.29.62,1.97.42,2.9-.51,5.66-5.64,11.39-11.22,17.08-16.83,4.14-4.08,9.03-5.46,14.61-3.82,6.96,2.05,13.88,4.22,20.81,6.37,2.45.76,4.87,1.61,7.28,2.41,0-5.42.08-10.74-.02-16.05-.09-4.75.7-9.16,4.15-12.71,1.74-1.8,3.58-3.39,6.38-3.22,1.08.07,2.19-.26,3.28-.4.08,0,.16,0,.24,0,.25.16.49.35.76.48,8.79,4.07,17.71,7.88,26.34,12.25,24.05,12.15,45.67,27.66,64.15,47.38,13.06,13.93,23.96,29.38,32.62,46.39,1.68,3.3,3.24,6.66,4.89,10.05.21-.44.4-.83.58-1.22,8.68-19.31,20.08-36.84,34.32-52.51,16.6-18.27,35.89-33.16,57.56-44.89,9.63-5.21,19.65-9.71,29.49-14.54,3.73-1.83,7.35-4.13,11.83-2.91.11.03.25,0,.36.02.37.11.79.16,1.11.36,5.43,3.38,7.71,8.34,7.57,14.64-.12,5.59-.02,11.19-.02,16.86.35-.1.73-.21,1.1-.33,8.83-2.76,17.66-5.52,26.48-8.29,5.87-1.85,10.93-.49,15.28,3.78,5.81,5.72,11.64,11.43,17.43,17.17.59.59,1.02.74,1.83.33,5-2.56,10.24-3.25,15.68-1.7,8.95,2.55,14.71,10.17,15.23,20.02-.01.36-.03.72-.03,1.08,0,66.77,0,133.55,0,200.32,0,.8.04,1.6.04,2.4,0,5.36,0,10.71,0,16.07-.02,2.32-.06,4.64-.07,6.95-.02,3.48-.56,6.84-2.23,9.94-2.36,4.38-6.07,7.34-10.31,9.73-45.63,25.7-91.25,51.41-136.88,77.1-11.92,6.71-23.83,13.45-35.78,20.11-4.27,2.38-8.82,3.71-13.79,2.98-.36-.05-.83.2-1.16.44-2.67,1.89-5.31,3.84-8,5.71-.52.36-1.22.63-1.85.64-8.35.09-16.71.14-25.06.19-7.75.05-15.51.08-23.26.13-.36,0-.71.15-1.07.23Zm73.66-335.54c.13-.03.26-.05.39-.08.08-.07.16-.13.24-.2.48-.35.97-.7,1.45-1.06,8.1-6.19,16.53-11.89,25.25-17.16,13.09-7.92,26.7-14.81,40.73-20.88.84-.37,1.23-.75,1.14-1.75-.14-1.47-.07-2.95-.08-4.43,0-1.85,0-3.71,0-5.79-1.95.96-3.69,1.81-5.42,2.69-20.88,10.58-39.92,23.74-56.31,40.55-2.39,2.45-4.62,5.07-6.92,7.6-.08.08-.16.16-.23.25-.06.1-.12.2-.19.29-.06.06-.13.12-.19.18.04.01.07.03.11.04.02-.08.04-.16.05-.24Zm-262.26-13.81c0,.69,0,1.13,0,1.57-.01,68.59-.03,137.18-.04,205.77,0,3.44.02,6.88-.05,10.32-.04,2.14.78,3.7,2.67,4.7.35.19.7.39,1.04.59,34.32,19.3,68.65,38.59,102.97,57.91,20.72,11.66,41.42,23.36,62.13,35.04.36.2.72.38,1.2.63,0-.56,0-.92,0-1.28.03-42.79.05-85.58.08-128.37.02-22.8.05-45.59.08-68.39,0-6.48-.07-12.96.04-19.44.04-2.41-.87-3.87-2.98-5.05-26.91-15.06-53.78-30.18-80.65-45.31-28.37-15.97-56.72-31.97-85.08-47.96-.4-.23-.82-.43-1.41-.74Zm424.52,0c-.53.27-.88.44-1.21.63-7.23,4.08-14.45,8.16-21.68,12.23-47.74,26.86-95.47,53.73-143.24,80.53-2.83,1.59-4.09,3.62-4.01,6.81.13,5.27.09,10.55.11,15.83.03,14.32.08,28.63.08,42.95,0,52,0,103.99,0,155.99v1.52c.51-.28.85-.47,1.19-.66,39.91-22.47,79.82-44.95,119.73-67.42,15.65-8.81,31.3-17.6,46.97-26.36,1.49-.83,2.2-1.85,2.14-3.62-.16-4.11-.18-8.23-.18-12.35,0-5.2.1-10.39.1-15.59,0-62.99,0-125.99,0-188.98v-1.52Zm-262.57,13.45c.08-.06.15-.12.23-.18-1.38-1.48-2.72-3-4.15-4.43-19.03-19-40.06-35.21-64.95-46.71,0,3.79.04,7.18-.02,10.57-.02.89.27,1.29,1.07,1.68,7.92,3.77,15.84,7.54,23.71,11.42,4.63,2.28,6.91,6.8,6.22,11.88-.77,5.59-5.16,9.81-10.73,10.24-3.15.25-5.95-.94-8.67-2.35-19.63-10.18-40.04-18.39-61.19-24.83-2.6-.79-4.31-.54-6.16,1.45-2.36,2.56-5.04,4.83-7.65,7.3.59.34,1.04.6,1.49.85,48.46,27.38,96.92,54.77,145.38,82.15,3.18,1.8,6.52,3.2,10.12,3.86,1.68.31,3.39.46,5.41.73-.5-.7-.74-1.06-1-1.41-11-14.88-24-27.81-38.47-39.31-3.28-2.61-6.69-5.07-9.94-7.72-3.67-2.99-5.52-6.83-4.53-11.63,1.38-6.65,8.86-13.13,17.96-7.63,2.03,1.23,3.92,2.7,5.87,4.06Zm31.98,249.26h36.55v-99.75h-36.55v99.75Zm38.63-186.06c.08.11.15.23.23.34,4.43-.12,8.69-1.09,12.62-3.15,4.06-2.14,8.01-4.48,12-6.73,41.8-23.6,83.59-47.19,125.39-70.79,3.32-1.87,6.62-3.76,10.09-5.72-3.12-2.33-4.95-5.46-6.66-8.68-.19-.35-.46-.66-.64-1.01-.52-1-1.18-1.22-2.32-.84-5.25,1.77-10.57,3.37-15.81,5.17-27.84,9.54-54.23,22.04-78.56,38.69-17.31,11.85-33.36,25.18-47.03,41.19-3.21,3.76-6.22,7.69-9.32,11.54Zm-38.87,31.89h37.16v-7.74h-37.16v7.74Zm37.18,208.58h-37.18v7.68h37.18v-7.68Zm-37.08-24.3h36.73v-5.77h-36.73v5.77Zm0-154.27h36.73v-5.74h-36.73v5.74Z"/><path class="cls-6" d="m472.08,570.16c-.07,0-.14.01-.21.01,0-5.36,0-10.71,0-16.07,0-.8-.04-1.6-.04-2.4,0-66.77,0-133.55,0-200.32,0-.36.02-.72.03-1.08.07,0,.14,0,.21.01v219.84Z"/><path class="cls-6" d="m0,351.28c.06-.03.13-.03.2-.01.01.36.04.72.04,1.08,0,55.48,0,110.97,0,166.45,0,.32-.02.64-.02.96-.07.01-.14.02-.22.01v-168.48Z"/><path class="cls-9" d="m0,519.76c.07,0,.14,0,.22-.01,0,11.59.01,23.18.02,34.77,0,.16-.03.32-.05.48-.07,0-.13,0-.18.04v-35.28Z"/><path class="cls-5" d="m0,555.04c.06-.04.12-.05.18-.04.02,6.44.04,12.88.04,19.32,0,.21-.15.43-.23.64,0-6.64,0-13.28,0-19.92Z"/><path class="cls-8" d="m286.68,368.5c-.08.07-.16.13-.24.2-.06-.06-.11-.13-.17-.19.08-.08.16-.16.23-.25.06.08.12.16.17.24Z"/><path class="cls-8" d="m286.09,368.81c.06-.1.12-.2.19-.29.06.06.11.13.17.19-.13.03-.26.05-.39.08,0,0,.03.02.03.02Z"/><path class="cls-8" d="m286.06,368.78c-.02.08-.04.16-.05.23l-.11-.04c.06-.06.13-.12.19-.18,0,0-.03-.02-.03-.02Z"/><path class="cls-11" d="m438.72,439.76c0,6.72-.05,13.44.02,20.16.06,5.71-2.43,9.85-7.36,12.64-5.73,3.25-11.43,6.53-17.14,9.8-32.62,18.67-65.24,37.33-97.86,56-3.25,1.86-6.49,3.76-9.78,5.56-3.53,1.93-7.28,2.79-11.16,1.21-4.7-1.92-6.87-5.81-7.15-10.62-.31-5.22-.15-10.46-.17-15.7-.02-6.36,0-12.72,0-19.08,0-2.64-.06-5.28-.07-7.91-.04-5.67,2.44-9.85,7.37-12.66,16.56-9.45,33.11-18.93,49.66-28.4,24.79-14.19,49.59-28.37,74.37-42.57,3.15-1.8,6.46-2.82,10.08-2.09,4.81.97,8.34,4.97,8.94,10.05.2,1.7.24,3.43.25,5.14.03,6.16.01,12.32.01,18.48Zm-126.99,73.92c.59-.32.98-.52,1.35-.73,22.48-12.86,44.97-25.71,67.45-38.58,11.15-6.38,22.3-12.78,33.45-19.17.54-.31,1.05-.53,1.04-1.39-.03-4.96.03-9.91.05-14.87,0-.26-.06-.52-.12-.9-.52.29-.93.52-1.34.76-26.47,15.15-52.93,30.29-79.4,45.45-7.03,4.03-14.04,8.1-21.07,12.12-.97.55-1.48,1.19-1.39,2.38.1,1.31-.03,2.64-.03,3.95,0,3.59,0,7.18,0,10.98Z"/><path class="cls-7" d="m311.73,513.67c0-3.8,0-7.39,0-10.98,0-1.32.13-2.64.03-3.95-.09-1.19.42-1.82,1.39-2.38,7.03-4.02,14.04-8.09,21.07-12.12,26.46-15.16,52.93-30.3,79.4-45.45.41-.23.82-.47,1.34-.76.05.38.12.64.12.9-.02,4.96-.08,9.91-.05,14.87,0,.86-.5,1.08-1.04,1.39-11.15,6.39-22.3,12.79-33.45,19.17-22.48,12.86-44.97,25.72-67.45,38.58-.37.21-.76.41-1.35.73Z"/><path class="cls-10" d="m673.04,385.75v44.59h10.24v12.81h-10.24v16.88h-17.1v-16.88h-31.99v-12.81l29.5-44.59h19.59Zm-36.17,44.59h19.88v-24.76c0-.96.04-2.13.11-3.48l.11-3-20.09,31.24Z"/><path class="cls-10" d="m717.85,461.16c-8.97,0-15.94-3.55-20.93-10.66-4.98-7.11-7.48-16.09-7.48-26.96s2.43-19.6,7.29-26.88c4.86-7.27,11.93-10.91,21.22-10.91s16.29,3.64,21.22,10.91c4.93,7.27,7.4,16.16,7.4,26.66s-2.47,19.75-7.42,26.98c-4.95,7.23-12.05,10.85-21.3,10.85Zm.21-63.13c-4.04,0-6.85,1.87-8.44,5.6-1.59,3.73-2.38,10.28-2.38,19.64s.83,15.99,2.49,19.67c1.66,3.68,4.42,5.52,8.28,5.52s6.59-1.8,8.31-5.41c1.71-3.61,2.57-9.97,2.57-19.08,0-10-.84-16.83-2.52-20.47-1.68-3.64-4.45-5.47-8.31-5.47Z"/><path class="cls-10" d="m802.3,385.75v44.59h10.24v12.81h-10.24v16.88h-17.1v-16.88h-31.99v-12.81l29.5-44.59h19.59Zm-36.17,44.59h19.88v-24.76c0-.96.04-2.13.11-3.48l.11-3-20.09,31.24Z"/><path class="cls-4" d="m892.71,459.95h-11.01l-19.97-30.44c-1.17-1.78-1.98-3.12-2.43-4.02h-.13c.18,1.71.27,4.32.27,7.84v26.62h-10.3v-48.45h11.76l19.22,29.49c.88,1.33,1.69,2.65,2.43,3.95h.13c-.18-1.13-.27-3.34-.27-6.66v-26.79h10.3v48.45Z"/><path class="cls-4" d="m919.23,460.79c-5.77,0-10.3-1.62-13.6-4.85-3.3-3.23-4.95-7.62-4.95-13.16s1.71-10.2,5.13-13.43c3.42-3.23,8.05-4.85,13.89-4.85s10.25,1.62,13.51,4.85c3.27,3.23,4.9,7.51,4.9,12.82,0,5.74-1.68,10.28-5.05,13.62-3.37,3.33-7.98,5-13.83,5Zm.27-28.11c-2.52,0-4.48.87-5.88,2.6-1.4,1.74-2.09,4.19-2.09,7.37,0,6.64,2.68,9.97,8.04,9.97s7.67-3.41,7.67-10.24c0-6.46-2.58-9.7-7.74-9.7Z"/><path class="cls-4" d="m965.95,459.54c-1.58.83-3.95,1.25-7.13,1.25-7.52,0-11.28-3.91-11.28-11.72v-15.84h-5.61v-7.87h5.61v-7.47l10.64-3.04v10.51h7.77v7.87h-7.77v13.99c0,3.6,1.43,5.41,4.29,5.41,1.13,0,2.29-.33,3.48-.98v7.91Z"/><path class="cls-4" d="m1020.11,420.39h-17.09v11.89h15.71v8.85h-15.71v18.82h-10.91v-48.45h28.01v8.89Z"/><path class="cls-4" d="m1043.52,460.79c-5.77,0-10.3-1.62-13.6-4.85-3.3-3.23-4.95-7.62-4.95-13.16s1.71-10.2,5.13-13.43c3.42-3.23,8.05-4.85,13.89-4.85s10.25,1.62,13.51,4.85c3.27,3.23,4.9,7.51,4.9,12.82,0,5.74-1.68,10.28-5.05,13.62-3.37,3.33-7.98,5-13.83,5Zm.27-28.11c-2.52,0-4.48.87-5.88,2.6-1.4,1.74-2.09,4.19-2.09,7.37,0,6.64,2.68,9.97,8.04,9.97s7.67-3.41,7.67-10.24c0-6.46-2.58-9.7-7.74-9.7Z"/><path class="cls-4" d="m1102.2,459.95h-10.64v-5.27h-.17c-2.63,4.08-6.16,6.12-10.57,6.12-8.02,0-12.03-4.85-12.03-14.56v-20.88h10.64v19.93c0,4.89,1.94,7.33,5.81,7.33,1.91,0,3.45-.67,4.59-2.01,1.15-1.34,1.72-3.16,1.72-5.46v-19.8h10.64v34.6Z"/><path class="cls-4" d="m1144.6,459.95h-10.64v-19.22c0-5.36-1.92-8.04-5.74-8.04-1.85,0-3.37.71-4.56,2.13-1.19,1.42-1.79,3.22-1.79,5.41v19.73h-10.68v-34.6h10.68v5.47h.14c2.54-4.21,6.25-6.32,11.12-6.32,7.66,0,11.49,4.75,11.49,14.26v21.18Z"/><path class="cls-4" d="m1186.9,459.95h-10.68v-4.76h-.14c-2.43,3.74-6,5.61-10.71,5.61-4.33,0-7.8-1.53-10.44-4.58-2.64-3.05-3.95-7.31-3.95-12.79s1.45-10.3,4.36-13.75c2.91-3.45,6.71-5.17,11.42-5.17,4.46,0,7.57,1.6,9.32,4.8h.14v-20.58h10.68v51.22Zm-10.47-16.83v-2.6c0-2.25-.65-4.12-1.96-5.61-1.31-1.49-3.01-2.23-5.1-2.23-2.37,0-4.21.93-5.54,2.79-1.33,1.86-1.99,4.41-1.99,7.65,0,3.04.64,5.38,1.93,7.03,1.28,1.64,3.06,2.47,5.34,2.47s3.92-.87,5.29-2.6,2.04-4.03,2.04-6.89Z"/></svg>